<svg width="378" height="84" viewBox="0 0 378 84" fill="none" xmlns="http://www.w3.org/2000/svg">
<path d="M58.4219 22H78.9219L68.9219 39.5L61.4219 52.5L51.4219 70L45.9219 78.5C38.3219 87.3 31.4219 82.5 28.9219 79L16.4219 57C24.4219 66.2 31.7552 59.8333 34.4219 55.5L50.9219 27.5C52.9219 23.5 56.7552 22.1667 58.4219 22Z" fill="#88D6FA" stroke="#88D6FA"/>
<ellipse cx="14.9725" cy="32.3665" rx="10.6617" ry="11.1331" transform="rotate(60 14.9725 32.3665)" fill="#88D6FA"/>
<path d="M34.2547 21.2333L24.4089 37.5794L15.1757 21.5869L34.2547 21.2333Z" fill="#88D6FA"/>
<path d="M99.4551 31.8291H89.0449V22.4199H99.4551V31.8291ZM99.4551 84H89.0449V40.7178H99.4551V84ZM156.951 69.3857C156.951 71.1742 156.724 72.7891 156.271 74.2305C155.817 75.6452 155.216 76.8997 154.469 77.9941C153.721 79.0618 152.854 79.9827 151.866 80.7568C150.879 81.5042 149.838 82.1182 148.743 82.5986C147.675 83.0791 146.581 83.4395 145.46 83.6797C144.366 83.8932 143.325 84 142.337 84H123.559C121.77 84 120.169 83.7731 118.754 83.3193C117.339 82.8656 116.085 82.265 114.99 81.5176C113.923 80.7435 113.002 79.8626 112.228 78.875C111.48 77.8874 110.866 76.8597 110.386 75.792C109.905 74.6976 109.545 73.6032 109.305 72.5088C109.091 71.3877 108.984 70.3467 108.984 69.3857V55.292C108.984 52.6227 109.465 50.3672 110.426 48.5254C111.413 46.6569 112.628 45.1488 114.069 44.001C115.537 42.8265 117.126 41.9857 118.834 41.4785C120.542 40.9714 122.117 40.7178 123.559 40.7178H142.337V51.1279H123.639C122.251 51.1279 121.196 51.4883 120.476 52.209C119.755 52.903 119.395 53.9307 119.395 55.292V69.3057C119.395 70.7204 119.742 71.7881 120.436 72.5088C121.156 73.2295 122.197 73.5898 123.559 73.5898H142.337C143.752 73.5898 144.806 73.2295 145.5 72.5088C146.194 71.7881 146.541 70.7471 146.541 69.3857V22.4199H156.951V69.3857ZM228.621 84H223.977C222.482 84 220.88 83.7464 219.172 83.2393C217.49 82.7321 215.915 81.9046 214.447 80.7568C212.979 79.5824 211.765 78.0742 210.804 76.2324C209.843 74.3639 209.362 72.0817 209.362 69.3857V32.3496H181.735C180.321 32.3496 179.253 32.71 178.532 33.4307C177.812 34.1247 177.451 35.1523 177.451 36.5137V84H167.041V36.5137C167.041 34.7253 167.268 33.1237 167.722 31.709C168.175 30.2943 168.776 29.0531 169.523 27.9854C170.298 26.891 171.178 25.9701 172.166 25.2227C173.154 24.4486 174.181 23.8213 175.249 23.3408C176.343 22.8604 177.438 22.5133 178.532 22.2998C179.627 22.0596 180.668 21.9395 181.655 21.9395H219.853L219.772 69.3857C219.772 70.667 220.173 71.6947 220.974 72.4688C221.774 73.2161 222.775 73.5898 223.977 73.5898H228.621V84ZM199.433 51.1279H181.655V40.7178H199.433V51.1279ZM282.434 69.3857C282.434 71.1742 282.207 72.7891 281.753 74.2305C281.299 75.6452 280.699 76.8997 279.951 77.9941C279.204 79.0618 278.336 79.9827 277.349 80.7568C276.361 81.5042 275.32 82.1182 274.226 82.5986C273.158 83.0791 272.063 83.4395 270.942 83.6797C269.848 83.8932 268.807 84 267.819 84H249.041C247.6 84 246.025 83.7464 244.316 83.2393C242.608 82.7321 241.02 81.9046 239.552 80.7568C238.11 79.5824 236.896 78.0742 235.908 76.2324C234.947 74.3639 234.467 72.0817 234.467 69.3857V55.292C234.467 52.6227 234.947 50.3672 235.908 48.5254C236.896 46.6569 238.11 45.1488 239.552 44.001C241.02 42.8265 242.608 41.9857 244.316 41.4785C246.025 40.9714 247.6 40.7178 249.041 40.7178H267.819C270.489 40.7178 272.757 41.1982 274.626 42.1592C276.494 43.1201 278.003 44.3346 279.15 45.8027C280.298 47.2441 281.126 48.819 281.633 50.5273C282.167 52.2357 282.434 53.8239 282.434 55.292V69.3857ZM272.023 55.3721C272.023 53.9307 271.663 52.863 270.942 52.1689C270.222 51.4749 269.181 51.1279 267.819 51.1279H249.121C247.733 51.1279 246.679 51.4883 245.958 52.209C245.237 52.903 244.877 53.9307 244.877 55.292V69.3857C244.877 70.7471 245.237 71.7881 245.958 72.5088C246.679 73.2295 247.733 73.5898 249.121 73.5898H267.819C269.234 73.5898 270.288 73.2295 270.982 72.5088C271.676 71.7881 272.023 70.7471 272.023 69.3857V55.3721ZM293.645 42.0791H303.214V77.1133H317.628V42.0791H327.237V77.1133H341.651V42.0791H359.389C359.282 43.0133 359.015 43.9076 358.588 44.7617C358.188 45.5892 357.667 46.3099 357.026 46.9238C356.412 47.5378 355.705 48.0316 354.904 48.4053C354.104 48.7523 353.263 48.9258 352.382 48.9258H351.221V73.8301C351.221 75.2448 351.021 76.5661 350.62 77.7939C350.22 79.0218 349.673 80.1029 348.979 81.0371C348.285 81.9447 347.47 82.6654 346.536 83.1992C345.602 83.7331 344.614 84 343.573 84H328.959C327.651 84 326.41 83.5596 325.235 82.6787C324.061 81.7712 323.087 80.5566 322.312 79.0352C321.538 80.5566 320.564 81.7712 319.39 82.6787C318.215 83.5596 316.974 84 315.666 84H301.292C300.251 84 299.263 83.7331 298.329 83.1992C297.395 82.6654 296.581 81.9447 295.887 81.0371C295.193 80.1029 294.646 79.0218 294.245 77.7939C293.845 76.5661 293.645 75.2448 293.645 73.8301V42.0791Z" fill="white"/>
</svg>
